<svg width="32" height="32" viewBox="0 0 32 32" fill="none" xmlns="http://www.w3.org/2000/svg">
<path d="M22.0264 2C23.4506 2.00002 24.66 2.26296 25.6543 2.78809C26.6484 3.28931 27.4006 4.0171 27.9111 4.97168C28.4486 5.90262 28.7178 7.01276 28.7178 8.30176C28.7178 9.94864 28.2207 11.5359 27.2266 13.0635C26.2323 14.5912 24.606 16.0001 22.3486 17.2891C21.778 17.6188 21.0829 17.9669 20.3213 18.3115C21.3782 18.7693 22.4033 19.3475 23.3965 20.0459C24.7132 20.9291 25.869 22.0629 26.8633 23.4473C27.8576 24.8317 28.57 26.5271 29 28.5322L17.3096 29.7139C17.3096 28.234 17.1354 26.8014 16.7861 25.417C16.4637 24.0088 15.9667 22.791 15.2949 21.7646C14.8104 20.9935 14.2266 20.4316 13.5449 20.0781C13.5259 20.2745 13.5065 20.4724 13.4863 20.6719C13.39 21.6218 13.2806 22.6073 13.1582 23.627C12.9432 25.4171 12.6608 27.4464 12.3115 29.7139L4.08789 30C4.19538 27.4459 4.25 25.1304 4.25 23.0537C4.27687 20.9532 4.24956 18.9241 4.16895 16.9668C4.1152 14.9856 3.98061 12.9443 3.76562 10.8438C3.57752 8.71946 3.32244 6.35649 3 3.75488L14.166 2.25098C14.166 3.56035 14.1616 4.79277 14.1533 5.94824C14.833 5.25534 15.5491 4.64323 16.3018 4.1123C17.2154 3.44394 18.1566 2.9313 19.124 2.57324C20.0915 2.19132 21.0589 2 22.0264 2ZM22.6992 13.9561C23.0274 12.276 19.6137 10.1313 16.8291 11.9043C14.0457 13.6775 17.2348 17.2507 18.7598 15.6123C20.4536 13.7926 22.3709 15.6354 22.6992 13.9561ZM15.0967 13.4648C16.0395 12.0787 13.039 10.8975 11.7646 11.9922C10.4906 13.087 14.2688 14.6791 15.0967 13.4648ZM16.4609 11.4824C18.0707 10.7196 16.171 8.34281 14.4463 8.7041C12.7215 9.06576 15.0519 12.1509 16.4609 11.4824ZM23.5791 8.5625C22.7127 7.18926 20.0157 10.0266 21.127 11.0469C22.3953 12.2118 24.4452 9.93678 23.5791 8.5625ZM18.8398 7.37402C17.1868 6.80441 17.1412 10.5171 18.7285 10.6768C20.5422 10.8576 20.4931 7.9439 18.8398 7.37402Z" fill="#232323"/>
</svg>
