<svg width="34" height="38" viewBox="0 0 34 38" fill="none" xmlns="http://www.w3.org/2000/svg">
<g filter="url(#filter0_d_696_1899)">
<path d="M23.0264 2C24.4506 2.00002 25.66 2.26296 26.6543 2.78809C27.6484 3.28931 28.4006 4.0171 28.9111 4.97168C29.4486 5.90262 29.7178 7.01276 29.7178 8.30176C29.7178 9.94864 29.2207 11.5359 28.2266 13.0635C27.2323 14.5912 25.606 16.0001 23.3486 17.2891C22.778 17.6188 22.0829 17.9669 21.3213 18.3115C22.3782 18.7693 23.4033 19.3475 24.3965 20.0459C25.7132 20.9291 26.869 22.0629 27.8633 23.4473C28.8576 24.8317 29.57 26.5271 30 28.5322L18.3096 29.7139C18.3096 28.234 18.1354 26.8014 17.7861 25.417C17.4637 24.0088 16.9667 22.791 16.2949 21.7646C15.8104 20.9935 15.2266 20.4316 14.5449 20.0781C14.5259 20.2745 14.5065 20.4724 14.4863 20.6719C14.39 21.6218 14.2806 22.6073 14.1582 23.627C13.9432 25.4171 13.6608 27.4464 13.3115 29.7139L5.08789 30C5.19538 27.4459 5.25 25.1304 5.25 23.0537C5.27687 20.9532 5.24956 18.9241 5.16895 16.9668C5.1152 14.9856 4.98061 12.9443 4.76562 10.8438C4.57752 8.71946 4.32244 6.35649 4 3.75488L15.166 2.25098C15.166 3.56035 15.1616 4.79277 15.1533 5.94824C15.833 5.25534 16.5491 4.64323 17.3018 4.1123C18.2154 3.44394 19.1566 2.9313 20.124 2.57324C21.0915 2.19132 22.0589 2 23.0264 2ZM23.6992 13.9561C24.0274 12.276 20.6137 10.1313 17.8291 11.9043C15.0457 13.6775 18.2348 17.2507 19.7598 15.6123C21.4536 13.7926 23.3709 15.6354 23.6992 13.9561ZM16.0967 13.4648C17.0395 12.0787 14.039 10.8975 12.7646 11.9922C11.4906 13.087 15.2688 14.6791 16.0967 13.4648ZM17.4609 11.4824C19.0707 10.7196 17.171 8.34281 15.4463 8.7041C13.7215 9.06576 16.0519 12.1509 17.4609 11.4824ZM24.5791 8.5625C23.7127 7.18926 21.0157 10.0266 22.127 11.0469C23.3953 12.2118 25.4452 9.93678 24.5791 8.5625ZM19.8398 7.37402C18.1868 6.80441 18.1412 10.5171 19.7285 10.6768C21.5422 10.8576 21.4931 7.9439 19.8398 7.37402Z" fill="#232323"/>
</g>
<defs>
<filter id="filter0_d_696_1899" x="-3" y="0" width="40" height="40" filterUnits="userSpaceOnUse" color-interpolation-filters="sRGB">
<feFlood flood-opacity="0" result="BackgroundImageFix"/>
<feColorMatrix in="SourceAlpha" type="matrix" values="0 0 0 0 0 0 0 0 0 0 0 0 0 0 0 0 0 0 127 0" result="hardAlpha"/>
<feOffset dy="4"/>
<feGaussianBlur stdDeviation="2"/>
<feComposite in2="hardAlpha" operator="out"/>
<feColorMatrix type="matrix" values="0 0 0 0 0 0 0 0 0 0 0 0 0 0 0 0 0 0 0.15 0"/>
<feBlend mode="normal" in2="BackgroundImageFix" result="effect1_dropShadow_696_1899"/>
<feBlend mode="normal" in="SourceGraphic" in2="effect1_dropShadow_696_1899" result="shape"/>
</filter>
</defs>
</svg>
