<svg width="16" height="16" viewBox="0 0 16 16" fill="none" xmlns="http://www.w3.org/2000/svg">
<path d="M10.583 2C11.1933 2.00002 11.7116 2.11285 12.1377 2.33789C12.5637 2.55272 12.8867 2.86429 13.1055 3.27344C13.3358 3.67241 13.4502 4.14876 13.4502 4.70117C13.4501 5.40676 13.2374 6.08673 12.8115 6.74121C12.3854 7.39594 11.6881 8.00031 10.7207 8.55273C10.4763 8.69395 10.1786 8.84268 9.85254 8.99023C10.3055 9.18645 10.7443 9.43507 11.1699 9.73438C11.7342 10.1129 12.2301 10.5981 12.6562 11.1914C13.0824 11.7848 13.387 12.5118 13.5713 13.3711L8.56152 13.877C8.56151 13.2429 8.48656 12.6293 8.33691 12.0361C8.19874 11.4327 7.98606 10.9105 7.69824 10.4707C7.49066 10.1404 7.24026 9.89954 6.94824 9.74805C6.94009 9.83203 6.9315 9.91666 6.92285 10.002C6.88158 10.4091 6.8347 10.8316 6.78223 11.2686C6.69009 12.0358 6.56865 12.9052 6.41895 13.877L2.89551 14C2.94157 12.9056 2.96386 11.9133 2.96387 11.0234C2.97538 10.1232 2.96424 9.25293 2.92969 8.41406C2.90665 7.56503 2.84896 6.69021 2.75684 5.79004C2.67622 4.87963 2.5669 3.86693 2.42871 2.75195L7.21387 2.10742C7.21387 2.66867 7.21252 3.19711 7.20898 3.69238C7.50032 3.3954 7.80728 3.13283 8.12988 2.90527C8.52141 2.6189 8.92432 2.39854 9.33887 2.24512C9.75346 2.08145 10.1684 2 10.583 2ZM10.8711 7.12402C11.0117 6.40407 9.54884 5.48458 8.35547 6.24414C7.16262 7.00405 8.52903 8.53594 9.18262 7.83398C9.90856 7.05391 10.7303 7.84375 10.8711 7.12402ZM7.61328 6.91406C8.01771 6.32003 6.73195 5.81349 6.18555 6.28223C5.63935 6.75142 7.25841 7.43438 7.61328 6.91406ZM7.33398 4.87305C6.59502 5.02813 7.59343 6.34972 8.19727 6.06348C8.88731 5.73658 8.0732 4.71805 7.33398 4.87305ZM11.248 4.8125C10.8767 4.22436 9.72159 5.43956 10.1973 5.87695C10.7408 6.37622 11.6192 5.40148 11.248 4.8125ZM9.21777 4.30273C8.50923 4.0585 8.4894 5.65065 9.16992 5.71875C9.94687 5.79598 9.92594 4.54721 9.21777 4.30273Z" fill="#FF8F54"/>
</svg>
