<?xml version="1.0" encoding="UTF-8"?><!DOCTYPE svg PUBLIC "-//W3C//DTD SVG 1.1//EN" "http://www.w3.org/Graphics/SVG/1.1/DTD/svg11.dtd"><svg xmlns="http://www.w3.org/2000/svg" xmlns:xlink="http://www.w3.org/1999/xlink"><defs/><symbol id="Ellipse" viewBox="0 0 12 12"><circle cx="6" cy="6" r="6" fill="currentColor"/></symbol><symbol id="fi-sr-angle-small-down" viewBox="0 0 32 32"><path fill="currentColor" d="M27.297 10.166a2.4 2.4 0 0 0-3.395 0l-7.337 7.336a.8.8 0 0 1-1.131 0l-7.336-7.336a2.4 2.4 0 1 0-3.395 3.394l7.337 7.337a5.6 5.6 0 0 0 7.92 0l7.337-7.337a2.4 2.4 0 0 0 0-3.394"/></symbol><symbol id="upper-right-arrow" viewBox="0 0 32 32"><path fill="currentColor" d="M25.867 7.033a1.67 1.67 0 0 0-.9-.9c-.2-.085-.415-.13-.633-.133H7.676a1.666 1.666 0 0 0 0 3.332h12.643L6.493 23.142a1.666 1.666 0 0 0 0 2.365 1.665 1.665 0 0 0 2.365 0l13.81-13.826v12.644a1.666 1.666 0 1 0 3.332 0V7.665a1.7 1.7 0 0 0-.133-.632"/></symbol></svg>