<svg xmlns="http://www.w3.org/2000/svg" width="32" height="32" fill="none" viewBox="0 0 32 32"><g clip-path="url(#a)"><path fill="#ff8f54" d="M30.667 29.334h-1.334V18.667A6.674 6.674 0 0 0 22.667 12h-5.334V8.054a3.33 3.33 0 0 0 2-3.052A9.7 9.7 0 0 0 16.984.437a1.33 1.33 0 0 0-1.968 0A9.7 9.7 0 0 0 12.666 5a3.33 3.33 0 0 0 2 3.052V12H9.334a6.675 6.675 0 0 0-6.666 6.666v10.667H1.333a1.333 1.333 0 1 0 0 2.667h29.334a1.333 1.333 0 1 0 0-2.667M9.333 14.667h13.334a4 4 0 0 1 4 4v2.64c-1.248-.133-2-.933-2-1.306A1.333 1.333 0 0 0 22 20c0 .457-.91 1.333-2.333 1.333-1.452 0-2.334-.925-2.334-1.334a1.333 1.333 0 1 0-2.666 0c0 .458-.91 1.334-2.334 1.334C10.881 21.334 10 20.409 10 20a1.333 1.333 0 0 0-2.667 0c0 .42-.772 1.185-2 1.308v-2.64a4 4 0 0 1 4-4m-4 9.306a5.54 5.54 0 0 0 3.334-1.306 5.746 5.746 0 0 0 7.333.02 5.746 5.746 0 0 0 7.333-.02 5.54 5.54 0 0 0 3.334 1.304v5.363H5.333z"/></g><defs><clipPath id="a"><path fill="#fff" d="M0 0h32v32H0z"/></clipPath></defs></svg>