<svg width="32" height="32" viewBox="0 0 32 32" fill="none" xmlns="http://www.w3.org/2000/svg">
<g clip-path="url(#clip0_1052_1942)">
<path d="M30.6667 29.3339H29.3333V18.6672C29.3312 16.8997 28.6282 15.2053 27.3784 13.9555C26.1286 12.7057 24.4341 12.0026 22.6667 12.0005H17.3333V8.05253C17.9273 7.7933 18.4328 7.36655 18.788 6.8245C19.1432 6.28244 19.3327 5.6486 19.3333 5.00053C18.9732 3.29623 18.1618 1.71997 16.984 0.436529C16.8591 0.299901 16.7071 0.190787 16.5376 0.116135C16.3682 0.0414833 16.1851 0.00292969 16 0.00292969C15.8149 0.00292969 15.6318 0.0414833 15.4624 0.116135C15.2929 0.190787 15.1409 0.299901 15.016 0.436529C13.8382 1.71997 13.0268 3.29623 12.6667 5.00053C12.6673 5.6486 12.8568 6.28244 13.212 6.8245C13.5672 7.36655 14.0727 7.7933 14.6667 8.05253V12.0005H9.33333C7.56587 12.0026 5.87141 12.7057 4.62163 13.9555C3.37184 15.2053 2.66878 16.8997 2.66667 18.6672V29.3339H1.33333C0.979711 29.3339 0.640573 29.4743 0.390524 29.7244C0.140476 29.9744 0 30.3136 0 30.6672C0 31.0208 0.140476 31.36 0.390524 31.61C0.640573 31.8601 0.979711 32.0005 1.33333 32.0005H30.6667C31.0203 32.0005 31.3594 31.8601 31.6095 31.61C31.8595 31.36 32 31.0208 32 30.6672C32 30.3136 31.8595 29.9744 31.6095 29.7244C31.3594 29.4743 31.0203 29.3339 30.6667 29.3339ZM9.33333 14.6672H22.6667C23.7275 14.6672 24.7449 15.0886 25.4951 15.8388C26.2452 16.5889 26.6667 17.6063 26.6667 18.6672V21.3072C25.4187 21.1739 24.6667 20.3739 24.6667 20.0005C24.6667 19.6469 24.5262 19.3078 24.2761 19.0577C24.0261 18.8077 23.687 18.6672 23.3333 18.6672C22.9797 18.6672 22.6406 18.8077 22.3905 19.0577C22.1405 19.3078 22 19.6469 22 20.0005C22 20.4579 21.0907 21.3339 19.6667 21.3339C18.2147 21.3339 17.3333 20.4085 17.3333 20.0005C17.3333 19.6469 17.1929 19.3078 16.9428 19.0577C16.6928 18.8077 16.3536 18.6672 16 18.6672C15.6464 18.6672 15.3072 18.8077 15.0572 19.0577C14.8071 19.3078 14.6667 19.6469 14.6667 20.0005C14.6667 20.4579 13.7573 21.3339 12.3333 21.3339C10.8813 21.3339 10 20.4085 10 20.0005C10 19.6469 9.85952 19.3078 9.60948 19.0577C9.35943 18.8077 9.02029 18.6672 8.66667 18.6672C8.31304 18.6672 7.97391 18.8077 7.72386 19.0577C7.47381 19.3078 7.33333 19.6469 7.33333 20.0005C7.33333 20.4205 6.56133 21.1845 5.33333 21.3085V18.6672C5.33333 17.6063 5.75476 16.5889 6.50491 15.8388C7.25505 15.0886 8.27247 14.6672 9.33333 14.6672ZM5.33333 23.9725C6.55826 23.9182 7.73057 23.4591 8.66667 22.6672C9.69515 23.5245 10.9908 23.9957 12.3297 23.9994C13.6687 24.003 14.9669 23.5389 16 22.6872C17.0331 23.5389 18.3313 24.003 19.6703 23.9994C21.0092 23.9957 22.3048 23.5245 23.3333 22.6672C24.2696 23.4586 25.4419 23.9172 26.6667 23.9712V29.3339H5.33333V23.9725Z" fill="#FF8F54"/>
</g>
<defs>
<clipPath id="clip0_1052_1942">
<rect width="32" height="32" fill="white"/>
</clipPath>
</defs>
</svg>
