<svg width="32" height="32" viewBox="0 0 32 32" fill="none" xmlns="http://www.w3.org/2000/svg">
<g clip-path="url(#clip0_1052_1945)">
<path d="M16 0C12.8355 0 9.74207 0.938384 7.11088 2.69649C4.4797 4.45459 2.42894 6.95345 1.21793 9.87707C0.00693258 12.8007 -0.309921 16.0177 0.307443 19.1214C0.924806 22.2251 2.44866 25.0761 4.6863 27.3137C6.92394 29.5514 9.77487 31.0752 12.8786 31.6926C15.9823 32.3099 19.1993 31.9931 22.1229 30.7821C25.0466 29.5711 27.5454 27.5203 29.3035 24.8891C31.0616 22.2579 32 19.1645 32 16C31.9954 11.7579 30.3082 7.69095 27.3087 4.69136C24.3091 1.69177 20.2421 0.00458811 16 0V0ZM16 29.3333C13.3629 29.3333 10.7851 28.5513 8.5924 27.0863C6.39975 25.6212 4.69078 23.5388 3.68161 21.1024C2.67245 18.6661 2.4084 15.9852 2.92287 13.3988C3.43734 10.8124 4.70722 8.43661 6.57192 6.57191C8.43662 4.70721 10.8124 3.43733 13.3988 2.92286C15.9852 2.40839 18.6661 2.67244 21.1025 3.68161C23.5388 4.69078 25.6212 6.39974 27.0863 8.5924C28.5514 10.7851 29.3333 13.3629 29.3333 16C29.3295 19.535 27.9235 22.9242 25.4238 25.4238C22.9242 27.9235 19.535 29.3295 16 29.3333Z" fill="#F7B12F"/>
<path d="M20.7153 11.2857C20.9668 11.5285 21.3036 11.6629 21.6532 11.6599C22.0028 11.6569 22.3372 11.5166 22.5844 11.2694C22.8316 11.0222 22.9718 10.6878 22.9749 10.3382C22.9779 9.9886 22.8435 9.6518 22.6006 9.40033C21.2953 8.09514 19.6323 7.20632 17.8218 6.84626C16.0113 6.48621 14.1348 6.6711 12.4294 7.37755C10.724 8.08399 9.26637 9.28027 8.24085 10.8151C7.21534 12.3499 6.66797 14.1544 6.66797 16.0003C6.66797 17.8462 7.21534 19.6507 8.24085 21.1856C9.26637 22.7204 10.724 23.9167 12.4294 24.6231C14.1348 25.3296 16.0113 25.5145 17.8218 25.1544C19.6323 24.7943 21.2953 23.9055 22.6006 22.6003C22.8435 22.3489 22.9779 22.0121 22.9749 21.6625C22.9718 21.3129 22.8316 20.9785 22.5844 20.7312C22.3372 20.484 22.0028 20.3438 21.6532 20.3408C21.3036 20.3377 20.9668 20.4721 20.7153 20.715C19.7829 21.6472 18.595 22.2819 17.3018 22.539C16.0087 22.7961 14.6683 22.664 13.4502 22.1594C12.2322 21.6547 11.1911 20.8002 10.4586 19.704C9.72615 18.6077 9.33521 17.3188 9.33521 16.0003C9.33521 14.6819 9.72615 13.393 10.4586 12.2967C11.1911 11.2004 12.2322 10.3459 13.4502 9.8413C14.6683 9.33667 16.0087 9.20454 17.3018 9.46163C18.595 9.71873 19.7829 10.3535 20.7153 11.2857Z" fill="#F7B12F"/>
</g>
<defs>
<clipPath id="clip0_1052_1945">
<rect width="32" height="32" fill="white"/>
</clipPath>
</defs>
</svg>
