<svg xmlns="http://www.w3.org/2000/svg" width="32" height="32" fill="none" viewBox="0 0 32 32"><g clip-path="url(#a)"><path fill="#54c4ff" d="M25.333 32H6.667A6.675 6.675 0 0 1 0 25.333V6.667A6.675 6.675 0 0 1 6.667 0h18.666A6.674 6.674 0 0 1 32 6.667v18.666A6.674 6.674 0 0 1 25.333 32M6.667 2.667a4 4 0 0 0-4 4v18.666a4 4 0 0 0 4 4h18.666a4 4 0 0 0 4-4V6.667a4 4 0 0 0-4-4zm5.789 20.006a3.16 3.16 0 0 1-1.581-.43 3.09 3.09 0 0 1-1.552-2.695v-7.096a3.116 3.116 0 0 1 4.666-2.705l7.038 3.513a3.115 3.115 0 0 1 .065 5.445l-7.168 3.583a2.93 2.93 0 0 1-1.468.385m-.033-10.666a.436.436 0 0 0-.433.445v7.096a.45.45 0 0 0 .666.39l7.168-3.583a.42.42 0 0 0 .16-.355.43.43 0 0 0-.225-.39l-7.032-3.513a.6.6 0 0 0-.304-.09"/></g><defs><clipPath id="a"><path fill="#fff" d="M0 0h32v32H0z"/></clipPath></defs></svg>