<svg xmlns="http://www.w3.org/2000/svg" width="32" height="32" fill="none" viewBox="0 0 32 32"><g clip-path="url(#a)"><path fill="#232323" d="M10.886 10.666a3.32 3.32 0 0 1-2.106-.792 6.44 6.44 0 0 1-2.076-4.348C6.38 2.2 8.194.24 10.152.022A3.54 3.54 0 0 1 12.8.814a5.57 5.57 0 0 1 1.835 3.866c.299 3.098-1.352 5.986-3.75 5.986m-7.082 8a2.82 2.82 0 0 1-1.897-.792A6.72 6.72 0 0 1 .04 13.526C-.253 10.2 1.382 8.24 3.148 8.022a2.98 2.98 0 0 1 2.381.792 5.82 5.82 0 0 1 1.655 3.866c.268 3.098-1.372 5.986-3.38 5.986m17.31-8c-2.413 0-4.044-2.888-3.742-5.99A5.57 5.57 0 0 1 19.207.81a3.54 3.54 0 0 1 2.641-.788C23.807.24 25.62 2.2 25.296 5.526a6.45 6.45 0 0 1-2.076 4.35c-.588.5-1.333.779-2.105.79m6.957 8c-2.515 0-3.77-2.888-3.487-5.99a5.73 5.73 0 0 1 1.708-3.866 3.13 3.13 0 0 1 2.461-.792c1.825.218 3.514 2.178 3.212 5.504a6.63 6.63 0 0 1-1.934 4.35 2.97 2.97 0 0 1-1.96.794m-6.738 13.333a6.5 6.5 0 0 1-3.262-.807 4.44 4.44 0 0 0-4.142 0c-4.017 2.25-8.7-.224-8.596-5.86 0-6.18 6.01-12 10.667-12s10.667 5.82 10.667 12c0 3.926-2.193 6.667-5.334 6.667"/></g><defs><clipPath id="a"><path fill="#fff" d="M0 0h32v32H0z"/></clipPath></defs></svg>