<svg xmlns="http://www.w3.org/2000/svg" width="32" height="32" fill="none" viewBox="0 0 32 32"><g clip-path="url(#a)"><path fill="#8c8c8c" d="M16 0a16 16 0 1 0 16 16A16.02 16.02 0 0 0 16 0m4.296 9.333h-8.592A26.2 26.2 0 0 1 16 3.216a26 26 0 0 1 4.296 6.117M21.363 12c.41 1.294.623 2.643.634 4a13.6 13.6 0 0 1-.634 4H10.635A13.6 13.6 0 0 1 10 16c.011-1.357.225-2.706.635-4zm-8.83-8.859a26.2 26.2 0 0 0-3.768 6.192H4.471a13.38 13.38 0 0 1 8.062-6.192M2.667 16c0-1.357.207-2.706.614-4h4.586a16 16 0 0 0-.534 4c.009 1.35.188 2.695.534 4H3.28a13.3 13.3 0 0 1-.614-4m1.804 6.667h4.294a26.2 26.2 0 0 0 3.768 6.192 13.38 13.38 0 0 1-8.062-6.192m7.233 0h8.592A26.2 26.2 0 0 1 16 28.784a26 26 0 0 1-4.296-6.117m7.77 6.192a26.2 26.2 0 0 0 3.76-6.192h4.295a13.38 13.38 0 0 1-8.056 6.192M29.333 16c0 1.357-.208 2.706-.615 4h-4.586a16 16 0 0 0 .534-4 16 16 0 0 0-.534-4h4.583c.408 1.294.617 2.643.617 4m-6.1-6.667a26.2 26.2 0 0 0-3.76-6.192 13.37 13.37 0 0 1 8.055 6.192z"/></g><defs><clipPath id="a"><path fill="#fff" d="M0 0h32v32H0z"/></clipPath></defs></svg>