<svg xmlns="http://www.w3.org/2000/svg" id="Layer_1" viewBox="0 0 50 50"><defs><linearGradient id="linear-gradient" x1="6.3" x2="51.6" y1="51.9" y2="8.1" gradientTransform="matrix(1 0 0 -1 0 49.9)" gradientUnits="userSpaceOnUse"><stop offset="0" stop-color="#b14dff"/><stop offset="1" stop-color="#652ac6"/></linearGradient><linearGradient id="linear-gradient1" x1="13.1" x2="58.4" y1="57.9" y2="14.1" gradientTransform="matrix(1 0 0 -1 0 49.9)" gradientUnits="userSpaceOnUse"><stop offset="0" stop-color="#b14dff"/><stop offset="1" stop-color="#652ac6"/></linearGradient><linearGradient id="linear-gradient2" x1="-8.1" x2="37.3" y1="36.1" y2="-7.8" gradientTransform="matrix(1 0 0 -1 0 49.9)" gradientUnits="userSpaceOnUse"><stop offset="0" stop-color="#b14dff"/><stop offset="1" stop-color="#652ac6"/></linearGradient><linearGradient id="linear-gradient3" x1="-2.2" x2="43.2" y1="43.3" y2="-.6" gradientTransform="matrix(1 0 0 -1 0 49.9)" gradientUnits="userSpaceOnUse"><stop offset="0" stop-color="#b14dff"/><stop offset="1" stop-color="#652ac6"/></linearGradient><linearGradient id="linear-gradient4" x1="-1.7" x2="43.6" y1="41.8" y2="-2" gradientTransform="matrix(1 0 0 -1 0 49.9)" gradientUnits="userSpaceOnUse"><stop offset="0" stop-color="#b14dff"/><stop offset="1" stop-color="#652ac6"/></linearGradient><linearGradient id="linear-gradient5" x1="-8.5" x2="36.8" y1="35.8" y2="-8" gradientTransform="matrix(1 0 0 -1 0 49.9)" gradientUnits="userSpaceOnUse"><stop offset="0" stop-color="#b14dff"/><stop offset="1" stop-color="#652ac6"/></linearGradient><linearGradient id="linear-gradient6" x1="12.6" x2="58" y1="57.7" y2="13.8" gradientTransform="matrix(1 0 0 -1 0 49.9)" gradientUnits="userSpaceOnUse"><stop offset="0" stop-color="#b14dff"/><stop offset="1" stop-color="#652ac6"/></linearGradient><linearGradient id="linear-gradient7" x1="6.7" x2="52.1" y1="50.5" y2="6.6" gradientTransform="matrix(1 0 0 -1 0 49.9)" gradientUnits="userSpaceOnUse"><stop offset="0" stop-color="#b14dff"/><stop offset="1" stop-color="#652ac6"/></linearGradient><linearGradient id="linear-gradient8" x1="10.8" x2="39.2" y1="10.7" y2="39.1" gradientTransform="matrix(1 0 0 -1 0 49.9)" gradientUnits="userSpaceOnUse"><stop offset="0" stop-color="#fff" stop-opacity=".2"/><stop offset="1" stop-color="#fff" stop-opacity=".5"/></linearGradient><linearGradient id="linear-gradient9" x1="11.9" x2="38.6" y1="38.9" y2="10.3" gradientTransform="matrix(1 0 0 -1 0 49.9)" gradientUnits="userSpaceOnUse"><stop offset="0" stop-color="#fff"/><stop offset="1" stop-color="#fff" stop-opacity="0"/></linearGradient><clipPath id="clippath"><rect width="30.2" height="30.2" x="9.9" y="9.9" rx="3.9" ry="3.9" style="fill:none"/></clipPath><style>.st1{fill:#fff}</style></defs><path d="M33 17H17v16h16z" class="st1"/><path d="M18.7 1c1.8 0 3.2 1.4 3.2 3.2V17h-6.5V4.2c0-1.8 1.4-3.2 3.2-3.2Z" style="fill:url(#linear-gradient)"/><path d="M31.6 1c1.8 0 3.2 1.4 3.2 3.2V17h-6.5V4.2c0-1.8 1.4-3.2 3.2-3.2Z" style="fill:url(#linear-gradient1)"/><path d="M1 31.3c0-1.8 1.4-3.2 3.2-3.2H17v6.5H4.2c-1.8 0-3.2-1.4-3.2-3.2Z" style="fill:url(#linear-gradient2)"/><path d="M1 18.4c0-1.8 1.4-3.2 3.2-3.2H17v6.5H4.2c-1.8 0-3.2-1.4-3.2-3.2Z" style="fill:url(#linear-gradient3)"/><path d="M31.3 49c-1.8 0-3.2-1.4-3.2-3.2V33h6.5v12.8c0 1.8-1.4 3.2-3.2 3.2Z" style="fill:url(#linear-gradient4)"/><path d="M18.4 49c-1.8 0-3.2-1.4-3.2-3.2V33h6.5v12.8c0 1.8-1.4 3.2-3.2 3.2Z" style="fill:url(#linear-gradient5)"/><path d="M49 18.7c0 1.8-1.4 3.2-3.2 3.2H33v-6.5h12.8c1.8 0 3.2 1.4 3.2 3.2Z" style="fill:url(#linear-gradient6)"/><path d="M49 31.6c0 1.8-1.4 3.2-3.2 3.2H33v-6.5h12.8c1.8 0 3.2 1.4 3.2 3.2Z" style="fill:url(#linear-gradient7)"/><path d="M13.8 9.9h22.5c2.1 0 3.9 1.7 3.9 3.9v22.5c0 2.1-1.7 3.9-3.9 3.9H13.8c-2.1 0-3.9-1.7-3.9-3.9V13.8c0-2.1 1.7-3.9 3.9-3.9Z" style="fill:url(#linear-gradient8);stroke:url(#linear-gradient9);stroke-width:1.8px"/><path d="M33 17H17v16h16z" class="st1"/></svg>