<svg xmlns="http://www.w3.org/2000/svg" width="48" height="48" fill="none" viewBox="0 0 48 48"><path fill="currentColor" d="M26 12a2 2 0 0 1 2-2h8.32l-2.46-2.84a1.7 1.7 0 1 1 2.56-2.22l5.16 6q.07.094.12.2.098.14.16.3.015.15 0 .3a1.3 1.3 0 0 1 0 .64q.015.15 0 .3a1.4 1.4 0 0 1-.16.3q-.05.106-.12.2l-5.16 6a1.7 1.7 0 1 1-2.56-2.22L36.32 14H28a2 2 0 0 1-2-2m-4-3v6a5 5 0 0 1-5 5h-6a5 5 0 0 1-5-5V9a5 5 0 0 1 5-5h6a5 5 0 0 1 5 5m-4 0a1 1 0 0 0-1-1h-6a1 1 0 0 0-1 1v6a1 1 0 0 0 1 1h6a1 1 0 0 0 1-1zm2 23h-8.32l2.46-2.84a1.7 1.7 0 1 0-2.56-2.22l-5.16 6q-.07.094-.12.2a1.4 1.4 0 0 0-.16.3q-.014.15 0 .3a1.3 1.3 0 0 0 0 .64q-.014.15 0 .3.062.16.16.3.05.106.12.2l5.16 6a1.699 1.699 0 0 0 3.07-.954 1.7 1.7 0 0 0-.51-1.266L11.68 36H20a2 2 0 0 0 0-4m22-1v6a5 5 0 0 1-5 5h-6a5 5 0 0 1-5-5v-6a5 5 0 0 1 5-5h6a5 5 0 0 1 5 5m-4 0a1 1 0 0 0-1-1h-6a1 1 0 0 0-1 1v6a1 1 0 0 0 1 1h6a1 1 0 0 0 1-1z"/></svg>