<svg width="32" height="32" viewBox="0 0 32 32" fill="none" xmlns="http://www.w3.org/2000/svg">
<path d="M25.8667 7.03283C25.6977 6.62578 25.3742 6.30231 24.9672 6.13327C24.7669 6.04791 24.5518 6.00263 24.3341 6H7.67552C7.23371 6 6.80999 6.17551 6.49758 6.48792C6.18517 6.80033 6.00966 7.22405 6.00966 7.66586C6.00966 8.10768 6.18517 8.53139 6.49758 8.8438C6.80999 9.15621 7.23371 9.33172 7.67552 9.33172H20.3194L6.49276 23.1417C6.33662 23.2966 6.21269 23.4808 6.12812 23.6838C6.04354 23.8868 6 24.1046 6 24.3245C6 24.5444 6.04354 24.7621 6.12812 24.9651C6.21269 25.1681 6.33662 25.3524 6.49276 25.5072C6.64762 25.6634 6.83187 25.7873 7.03487 25.8719C7.23787 25.9565 7.45561 26 7.67552 26C7.89543 26 8.11317 25.9565 8.31617 25.8719C8.51917 25.7873 8.70342 25.6634 8.85828 25.5072L22.6683 11.6806V24.3245C22.6683 24.7663 22.8438 25.19 23.1562 25.5024C23.4686 25.8148 23.8923 25.9903 24.3341 25.9903C24.776 25.9903 25.1997 25.8148 25.5121 25.5024C25.8245 25.19 26 24.7663 26 24.3245V7.66586C25.9974 7.44817 25.9521 7.23311 25.8667 7.03283V7.03283Z" fill="#232323"/>
</svg>
