<svg width="20" height="22" viewBox="0 0 20 22" fill="none" xmlns="http://www.w3.org/2000/svg">
<g filter="url(#filter0_d_721_963)">
<path d="M12.583 2C13.1933 2.00002 13.7116 2.11285 14.1377 2.33789C14.5637 2.55272 14.8867 2.86429 15.1055 3.27344C15.3358 3.67241 15.4502 4.14876 15.4502 4.70117C15.4501 5.40676 15.2374 6.08673 14.8115 6.74121C14.3854 7.39594 13.6881 8.00031 12.7207 8.55273C12.4763 8.69395 12.1786 8.84268 11.8525 8.99023C12.3055 9.18645 12.7443 9.43507 13.1699 9.73438C13.7342 10.1129 14.2301 10.5981 14.6562 11.1914C15.0824 11.7848 15.387 12.5118 15.5713 13.3711L10.5615 13.877C10.5615 13.2429 10.4866 12.6293 10.3369 12.0361C10.1987 11.4327 9.98606 10.9105 9.69824 10.4707C9.49066 10.1404 9.24026 9.89954 8.94824 9.74805C8.94009 9.83203 8.9315 9.91666 8.92285 10.002C8.88158 10.4091 8.8347 10.8316 8.78223 11.2686C8.6901 12.0358 8.56865 12.9052 8.41895 13.877L4.89551 14C4.94157 12.9056 4.96386 11.9133 4.96387 11.0234C4.97538 10.1232 4.96424 9.25293 4.92969 8.41406C4.90665 7.56503 4.84896 6.69021 4.75684 5.79004C4.67622 4.87963 4.5669 3.86693 4.42871 2.75195L9.21387 2.10742C9.21387 2.66867 9.21252 3.19711 9.20898 3.69238C9.50032 3.3954 9.80728 3.13283 10.1299 2.90527C10.5214 2.6189 10.9243 2.39854 11.3389 2.24512C11.7535 2.08145 12.1684 2 12.583 2ZM12.8711 7.12402C13.0117 6.40407 11.5488 5.48458 10.3555 6.24414C9.16262 7.00405 10.529 8.53594 11.1826 7.83398C11.9086 7.05391 12.7303 7.84375 12.8711 7.12402ZM9.61328 6.91406C10.0177 6.32003 8.73194 5.81349 8.18555 6.28223C7.63935 6.75142 9.25841 7.43438 9.61328 6.91406ZM9.33398 4.87305C8.59502 5.02813 9.59343 6.34972 10.1973 6.06348C10.8873 5.73658 10.0732 4.71805 9.33398 4.87305ZM13.248 4.8125C12.8767 4.22436 11.7216 5.43956 12.1973 5.87695C12.7408 6.37622 13.6192 5.40148 13.248 4.8125ZM11.2178 4.30273C10.5092 4.0585 10.4894 5.65065 11.1699 5.71875C11.9469 5.79598 11.9259 4.54721 11.2178 4.30273Z" fill="#232323"/>
</g>
<defs>
<filter id="filter0_d_721_963" x="-2" y="0" width="24" height="24" filterUnits="userSpaceOnUse" color-interpolation-filters="sRGB">
<feFlood flood-opacity="0" result="BackgroundImageFix"/>
<feColorMatrix in="SourceAlpha" type="matrix" values="0 0 0 0 0 0 0 0 0 0 0 0 0 0 0 0 0 0 127 0" result="hardAlpha"/>
<feOffset dy="4"/>
<feGaussianBlur stdDeviation="2"/>
<feComposite in2="hardAlpha" operator="out"/>
<feColorMatrix type="matrix" values="0 0 0 0 0 0 0 0 0 0 0 0 0 0 0 0 0 0 0.25 0"/>
<feBlend mode="normal" in2="BackgroundImageFix" result="effect1_dropShadow_721_963"/>
<feBlend mode="normal" in="SourceGraphic" in2="effect1_dropShadow_721_963" result="shape"/>
</filter>
</defs>
</svg>
