<svg width="32" height="32" viewBox="0 0 32 32" fill="none" xmlns="http://www.w3.org/2000/svg">
<g clip-path="url(#clip0_1052_1944)">
<path d="M25.3333 32H6.66667C4.89921 31.9979 3.20474 31.2948 1.95496 30.045C0.705176 28.7953 0.00211714 27.1008 0 25.3333L0 6.66667C0.00211714 4.89921 0.705176 3.20474 1.95496 1.95496C3.20474 0.705176 4.89921 0.00211714 6.66667 0L25.3333 0C27.1008 0.00211714 28.7953 0.705176 30.045 1.95496C31.2948 3.20474 31.9979 4.89921 32 6.66667V25.3333C31.9979 27.1008 31.2948 28.7953 30.045 30.045C28.7953 31.2948 27.1008 31.9979 25.3333 32ZM6.66667 2.66667C5.6058 2.66667 4.58839 3.08809 3.83824 3.83824C3.08809 4.58839 2.66667 5.6058 2.66667 6.66667V25.3333C2.66667 26.3942 3.08809 27.4116 3.83824 28.1618C4.58839 28.9119 5.6058 29.3333 6.66667 29.3333H25.3333C26.3942 29.3333 27.4116 28.9119 28.1618 28.1618C28.9119 27.4116 29.3333 26.3942 29.3333 25.3333V6.66667C29.3333 5.6058 28.9119 4.58839 28.1618 3.83824C27.4116 3.08809 26.3942 2.66667 25.3333 2.66667H6.66667ZM12.456 22.6733C11.9002 22.6715 11.3547 22.5229 10.8747 22.2427C10.4005 21.9713 10.0069 21.5787 9.73418 21.1053C9.46148 20.6318 9.31947 20.0944 9.32267 19.548V12.452C9.32222 11.9055 9.46549 11.3685 9.73811 10.8949C10.0107 10.4213 10.4031 10.0277 10.8759 9.75365C11.3487 9.47958 11.8852 9.33466 12.4317 9.33343C12.9781 9.3322 13.5153 9.47472 13.9893 9.74667L21.0267 13.26C21.5155 13.5239 21.9249 13.9137 22.2123 14.389C22.4998 14.8644 22.6549 15.408 22.6615 15.9634C22.6682 16.5189 22.5262 17.0661 22.2502 17.5482C21.9742 18.0303 21.5744 18.4298 21.092 18.7053L13.924 22.288C13.4769 22.543 12.9707 22.6759 12.456 22.6733ZM12.4227 12.0067C12.3492 12.0066 12.277 12.026 12.2133 12.0627C12.1442 12.1011 12.0868 12.1577 12.0473 12.2263C12.0079 12.2949 11.9878 12.3729 11.9893 12.452V19.548C11.9898 19.6259 12.0105 19.7024 12.0494 19.7699C12.0884 19.8374 12.1442 19.8937 12.2115 19.9331C12.2787 19.9725 12.3551 19.9937 12.433 19.9947C12.5109 19.9957 12.5878 19.9764 12.656 19.9387L19.824 16.3547C19.8774 16.3129 19.9198 16.2588 19.9477 16.1971C19.9756 16.1353 19.988 16.0677 19.984 16C19.9857 15.9207 19.9655 15.8425 19.9258 15.7738C19.8861 15.7052 19.8283 15.6487 19.7587 15.6107L12.7267 12.0973C12.635 12.0411 12.5302 12.0098 12.4227 12.0067Z" fill="#54C4FF"/>
</g>
<defs>
<clipPath id="clip0_1052_1944">
<rect width="32" height="32" fill="white"/>
</clipPath>
</defs>
</svg>
