<svg xmlns="http://www.w3.org/2000/svg" width="32" height="32" fill="none" viewBox="0 0 32 32"><g clip-path="url(#a)"><path fill="currentColor" d="M26.667 0a5.333 5.333 0 0 0-5.334 5.333 1.333 1.333 0 0 0 2.667 0 2.667 2.667 0 0 1 5.333 0v14.702a6.6 6.6 0 0 0-4-1.368 6.67 6.67 0 0 0-5.526 2.942 5.31 5.31 0 0 0-7.614 0 6.67 6.67 0 0 0-5.526-2.942 6.6 6.6 0 0 0-4 1.368V5.333a2.667 2.667 0 1 1 5.333 0 1.333 1.333 0 0 0 2.667 0A5.333 5.333 0 1 0 0 5.333v20a6.667 6.667 0 0 0 13.333 0 2.667 2.667 0 0 1 5.334 0 6.667 6.667 0 1 0 13.333 0v-20A5.333 5.333 0 0 0 26.667 0"/></g><defs><clipPath id="a"><path fill="#fff" d="M0 0h32v32H0z"/></clipPath></defs></svg>