<svg xmlns="http://www.w3.org/2000/svg" width="32" height="32" fill="none" viewBox="0 0 32 32"><g clip-path="url(#a)"><path fill="currentColor" d="M16 8a8 8 0 1 0 8 8 8.01 8.01 0 0 0-8-8m3.81 6.02-4 6.667a1.334 1.334 0 1 1-2.286-1.374l2.788-4.646h-2.979a1.333 1.333 0 0 1 0-2.667h5.334a1.333 1.333 0 0 1 1.142 2.02M16 0a16 16 0 1 0 16 16A16.02 16.02 0 0 0 16 0m0 26.667A10.666 10.666 0 1 1 26.667 16 10.68 10.68 0 0 1 16 26.667"/></g><defs><clipPath id="a"><path fill="#fff" d="M0 0h32v32H0z"/></clipPath></defs></svg>