<svg xmlns="http://www.w3.org/2000/svg" width="48" height="48" fill="none" viewBox="0 0 48 48"><path fill="currentColor" d="M29.998 23.7a5.82 5.82 0 0 0-4-1.7h-3.88a1.86 1.86 0 0 1-1.24-.54 1.62 1.62 0 0 1-.5-1.16v-.18a2.4 2.4 0 0 1 .84-1.52 4.36 4.36 0 0 1 2.78-.86q.43-.03.86 0a5.5 5.5 0 0 1 3 1.4 2.004 2.004 0 1 0 2.66-3 9.7 9.7 0 0 0-4.52-2.14v-2a2 2 0 0 0-4 0v2a7.64 7.64 0 0 0-3.36 1.58 6.44 6.44 0 0 0-2.22 4.16 5 5 0 0 0 0 .56 5.68 5.68 0 0 0 1.68 4 5.82 5.82 0 0 0 3.9 1.7h3.88a2 2 0 0 1 1.24.52 1.7 1.7 0 0 1 .5 1.18v.16a2.44 2.44 0 0 1-.84 1.54c-.8.597-1.782.9-2.78.86q-.43.03-.86 0a5.8 5.8 0 0 1-3-1.4 2 2 0 1 0-2.66 2.98 9.56 9.56 0 0 0 4.52 2.16v2a2 2 0 0 0 4 0v-2a7.7 7.7 0 0 0 3.36-1.6 6.34 6.34 0 0 0 2.22-4.16q.015-.28 0-.56a5.68 5.68 0 0 0-1.58-3.98m14 .3a20 20 0 1 1-40 0 20 20 0 0 1 40 0m-4 0a16 16 0 1 0-32.001.026A16 16 0 0 0 39.998 24"/></svg>