<svg xmlns="http://www.w3.org/2000/svg" width="48" height="48" fill="none" viewBox="0 0 48 48"><rect width="37.2" height="37.2" x="5.4" y="5.4" fill="none" stroke="currentColor" stroke-width="3.6" rx="18.6"/><path fill="currentColor" d="M24.002 20.032c2.255 0 4.003 1.388 5.088 2.676 1.108 1.314 1.93 2.983 2.265 4.55l.208.886.014.067a5.5 5.5 0 0 1-.096 2.62 5.5 5.5 0 0 1-1.292 2.274 5.39 5.39 0 0 1-4.778 1.628h-.006v-.001l-1.403-.223-1.404.223h-.003l-.002.001h-.001a5.39 5.39 0 0 1-4.777-1.628 5.5 5.5 0 0 1-1.292-2.274 5.5 5.5 0 0 1-.096-2.62l.014-.067.207-.887h.001c.34-1.602 1.195-3.272 2.307-4.573 1.081-1.265 2.826-2.652 5.046-2.652m0 5.215c-.03 0-.471.073-1.129.842-.61.713-1.038 1.619-1.173 2.289l-.016.074-.194.828a.26.26 0 0 0 .172.292q.06.02.123.01h.006l1.81-.288c.266-.042.537-.042.803 0l1.81.287.006.001a.26.26 0 0 0 .227-.077.26.26 0 0 0 .066-.225l-.192-.828-.016-.07c-.14-.681-.562-1.59-1.157-2.297-.635-.753-1.073-.838-1.146-.838m11.997-4.224a2.597 2.597 0 0 1-2.587 2.607 2.597 2.597 0 0 1-2.586-2.607 2.597 2.597 0 0 1 2.586-2.608A2.597 2.597 0 0 1 36 21.023m-5.795-5.216a2.597 2.597 0 0 1-2.586 2.607 2.597 2.597 0 0 1-2.587-2.607 2.597 2.597 0 0 1 2.587-2.608 2.597 2.597 0 0 1 2.586 2.608m-13.031 5.216a2.597 2.597 0 0 1-2.587 2.607 2.597 2.597 0 0 1-2.586-2.607 2.597 2.597 0 0 1 2.586-2.608 2.597 2.597 0 0 1 2.587 2.608m5.793-5.216a2.597 2.597 0 0 1-2.586 2.607 2.597 2.597 0 0 1-2.586-2.607 2.597 2.597 0 0 1 2.586-2.608 2.597 2.597 0 0 1 2.586 2.608"/></svg>