<svg xmlns="http://www.w3.org/2000/svg" width="48" height="48" fill="none" viewBox="0 0 48 48"><path fill="currentColor" d="M36.8 24a6.39 6.39 0 0 0-5.076 2.505l-.112-.048a8 8 0 0 0-9.614-10.203l-.146-.275a6.392 6.392 0 1 0-2.846 1.46l.116.22a7.987 7.987 0 0 0-1.814 10.72l-3.016 2.82a6.4 6.4 0 1 0 2.328 2.204l2.94-2.749a7.99 7.99 0 0 0 10.463-1.393l.447.19A6.4 6.4 0 1 0 36.8 24M14.4 11.2a3.2 3.2 0 1 1 6.4 0 3.2 3.2 0 0 1-6.4 0M11.2 40a3.2 3.2 0 1 1 0-6.4 3.2 3.2 0 0 1 0 6.4M24 28.8a4.8 4.8 0 0 1-2.56-8.855l.65-.347A4.8 4.8 0 1 1 24 28.8m12.8 4.8a3.2 3.2 0 1 1 0-6.4 3.2 3.2 0 0 1 0 6.4"/></svg>